# This file uses centimeters as units for non-parametric coordinates.

mtllib puerta_lavadora.mtl
g default
v -1.449981 1.348125 0.037373
v -1.562093 1.236012 0.037373
v -1.603129 1.082864 0.037373
v -1.296833 1.389161 0.037373
v -1.603129 1.082864 -0.054784
v -1.562093 1.236012 -0.054784
v -1.449981 1.348125 -0.054784
v -1.296833 1.389161 -0.054784
v 1.562093 1.236012 0.037373
v 1.449981 1.348125 0.037373
v 1.296833 1.389161 0.037373
v 1.603129 1.082864 0.037373
v 1.603129 1.082864 -0.054784
v 1.296833 1.389161 -0.054784
v 1.449981 1.348125 -0.054784
v 1.562093 1.236012 -0.054784
v -1.562093 -1.236012 0.037373
v -1.449981 -1.348125 0.037373
v -1.296833 -1.389161 0.037373
v -1.603129 -1.082864 0.037373
v -1.449981 -1.348125 -0.054784
v -1.562093 -1.236012 -0.054784
v -1.603129 -1.082864 -0.054784
v -1.296833 -1.389161 -0.054784
v 1.449981 -1.348125 0.037373
v 1.562093 -1.236012 0.037373
v 1.603129 -1.082864 0.037373
v 1.296833 -1.389161 0.037373
v 1.562093 -1.236012 -0.054784
v 1.449981 -1.348125 -0.054784
v 1.296833 -1.389161 -0.054784
v 1.603129 -1.082864 -0.054784
v 1.329614 -0.232635 0.008062
v 1.323087 -0.232635 -0.001888
v 1.312922 -0.232635 -0.009784
v 1.300114 -0.232635 -0.014854
v 1.285915 -0.232635 -0.016600
v 1.271716 -0.232635 -0.014854
v 1.258907 -0.232635 -0.009784
v 1.248743 -0.232635 -0.001888
v 1.242216 -0.232635 0.008062
v 1.239967 -0.232635 0.019092
v 1.242216 -0.232635 0.030121
v 1.248743 -0.232635 0.040072
v 1.258907 -0.232635 0.047967
v 1.271716 -0.232635 0.053037
v 1.285915 -0.232635 0.054784
v 1.300114 -0.232635 0.053037
v 1.312922 -0.232635 0.047967
v 1.323087 -0.232635 0.040072
v 1.329614 -0.232635 0.030121
v 1.331862 -0.232635 0.019092
v 1.329614 0.232431 0.008062
v 1.323087 0.232431 -0.001888
v 1.312922 0.232431 -0.009784
v 1.300114 0.232431 -0.014854
v 1.285915 0.232431 -0.016600
v 1.271716 0.232431 -0.014854
v 1.258907 0.232431 -0.009784
v 1.248743 0.232431 -0.001888
v 1.242216 0.232431 0.008062
v 1.239967 0.232431 0.019092
v 1.242216 0.232431 0.030121
v 1.248743 0.232431 0.040072
v 1.258907 0.232431 0.047967
v 1.271716 0.232431 0.053037
v 1.285915 0.232431 0.054784
v 1.300114 0.232431 0.053037
v 1.312922 0.232431 0.047967
v 1.323087 0.232431 0.040072
v 1.329614 0.232431 0.030121
v 1.331862 0.232431 0.019092
v 1.285915 -0.232636 0.019092
v 1.285915 0.232433 0.019092
vt 0.398884 0.500000
vt 0.398883 0.250001
vt 0.601117 0.250001
vt 0.601117 0.500000
vt 0.398883 0.999999
vt 0.398883 0.750000
vt 0.601116 0.750000
vt 0.601117 0.999999
vt 0.625001 0.027561
vt 0.875000 0.027562
vt 0.875000 0.222439
vt 0.625001 0.222439
vt 0.125000 0.027561
vt 0.374999 0.027561
vt 0.374999 0.222439
vt 0.125000 0.222438
vt 0.375000 0.250000
vt 0.125000 0.250000
vt 0.387334 0.250001
vt 0.387334 0.500000
vt 0.375000 0.500000
vt 0.612666 0.250001
vt 0.612666 0.500000
vt 0.625000 0.250000
vt 0.625000 0.500000
vt 0.875000 0.250000
vt 0.397801 0.988671
vt 0.387334 0.750000
vt 0.396645 0.976573
vt 0.375000 0.750000
vt 0.361610 0.026085
vt 0.125000 0.000000
vt 0.638390 0.026085
vt 0.875000 0.000000
vt 0.625000 0.019502
vt 0.612666 0.525862
vt 0.612666 0.750000
vt 0.625000 0.750000
vt -0.000000 -0.000000
vt -0.000000 -0.000000
vt 0.398883 0.000000
vt 0.601117 0.000000
vt 0.375000 0.722439
vt 0.375000 0.527561
vt 0.625000 0.527561
vt 0.625000 0.722439
vt 0.187500 0.156250
vt 0.193750 0.156250
vt 0.193750 0.344220
vt 0.187500 0.344220
vt 0.200000 0.156250
vt 0.200000 0.344220
vt 0.193750 0.344220
vt 0.206250 0.156250
vt 0.206250 0.344220
vt 0.200000 0.344220
vt 0.212500 0.156250
vt 0.212500 0.344220
vt 0.206250 0.344220
vt 0.218750 0.156250
vt 0.218750 0.344220
vt 0.212500 0.344220
vt 0.225000 0.156250
vt 0.225000 0.344220
vt 0.218750 0.344220
vt 0.231250 0.156250
vt 0.231250 0.344220
vt 0.225000 0.344220
vt 0.237500 0.156250
vt 0.237500 0.344220
vt 0.231250 0.344220
vt 0.243750 0.156250
vt 0.243750 0.344220
vt 0.237500 0.344220
vt 0.250000 0.156250
vt 0.250000 0.344220
vt 0.243750 0.344220
vt 0.256250 0.156250
vt 0.256250 0.344220
vt 0.250000 0.344220
vt 0.262500 0.156250
vt 0.262500 0.344220
vt 0.256250 0.344220
vt 0.268750 0.156250
vt 0.268750 0.344220
vt 0.262500 0.344220
vt 0.275000 0.156250
vt 0.275000 0.344220
vt 0.268750 0.344220
vt 0.281250 0.156250
vt 0.281250 0.344220
vt 0.275000 0.344220
vt 0.287500 0.156250
vt 0.287500 0.344220
vt 0.281250 0.344220
vt 0.293750 0.156250
vt 0.293750 0.344220
vt 0.287500 0.344220
vt 0.300000 0.156250
vt 0.300000 0.344220
vt 0.293750 0.344220
vt 0.306250 0.156250
vt 0.306250 0.344220
vt 0.300000 0.344220
vt 0.312500 0.156250
vt 0.312500 0.344220
vt 0.313204 0.032204
vt 0.216201 0.035988
vt 0.256410 0.076923
vt 0.295921 0.014920
vt 0.274142 0.003824
vt 0.250000 -0.000000
vt 0.225858 0.003824
vt 0.204079 0.014921
vt 0.186796 0.032204
vt 0.175699 0.053983
vt 0.171875 0.078125
vt 0.175699 0.102267
vt 0.186796 0.124046
vt 0.204079 0.141329
vt 0.225858 0.152426
vt 0.250000 0.156250
vt 0.274142 0.152426
vt 0.295921 0.141329
vt 0.313204 0.124046
vt 0.324301 0.102267
vt 0.328125 0.078125
vt 0.432402 0.071977
vt 0.250000 0.075000
vt 0.432402 0.594690
vt 0.208803 0.311864
vt 0.250000 0.418750
vt 0.417606 0.623728
vt 0.197280 0.323386
vt 0.250000 0.418750
vt 0.394561 0.646773
vt 0.182761 0.330784
vt 0.250000 0.418750
vt 0.365523 0.661568
vt 0.166667 0.333333
vt 0.250000 0.418750
vt 0.333333 0.666667
vt 0.150572 0.330784
vt 0.250000 0.418750
vt 0.301144 0.661568
vt 0.136053 0.323386
vt 0.250000 0.418750
vt 0.272106 0.646773
vt 0.124531 0.311864
vt 0.250000 0.418750
vt 0.249061 0.623728
vt 0.117133 0.297345
vt 0.250000 0.418750
vt 0.234265 0.594689
vt 0.114583 0.281250
vt 0.250000 0.418750
vt 0.229167 0.562500
vt 0.117132 0.265156
vt 0.250000 0.418750
vt 0.234265 0.530311
vt 0.124530 0.250636
vt 0.250000 0.418750
vt 0.249061 0.501272
vt 0.136053 0.239114
vt 0.250000 0.418750
vt 0.272106 0.478227
vt 0.150572 0.231716
vt 0.250000 0.418750
vt 0.301144 0.463432
vt 0.166667 0.229167
vt 0.250000 0.418750
vt 0.333333 0.458334
vt 0.182761 0.231716
vt 0.250000 0.418750
vt 0.365523 0.463432
vt 0.197280 0.239114
vt 0.250000 0.418750
vt 0.394561 0.478228
vt 0.208803 0.250636
vt 0.250000 0.418750
vt 0.417606 0.501272
vt 0.216201 0.265155
vt 0.333333 0.558333
vt 0.432402 0.530311
vt 0.328125 0.421875
vt 0.250000 0.418750
vt 0.216201 0.297345
vn -0.014938 0.999888 0.000000
vn -0.014938 0.999888 0.000000
vn 0.014938 0.999888 0.000000
vn 0.014938 0.999888 0.000000
vn -0.014938 -0.999888 0.000000
vn -0.014938 -0.999888 0.000000
vn 0.014938 -0.999888 0.000000
vn 0.014938 -0.999888 0.000000
vn 0.999844 -0.017694 0.000000
vn 0.999844 -0.017694 0.000000
vn 0.999844 0.017694 0.000000
vn 0.999844 0.017694 0.000000
vn -0.999844 -0.017694 0.000000
vn -0.999844 -0.017694 0.000000
vn -0.999844 0.017694 0.000000
vn -0.999844 0.017694 0.000000
vn -0.866027 0.499997 0.000000
vn -0.866027 0.499997 0.000000
vn -0.707111 0.707103 0.000000
vn -0.707111 0.707103 0.000000
vn -0.258818 0.965926 0.000000
vn -0.258818 0.965926 0.000000
vn 0.258818 0.965926 0.000000
vn 0.258818 0.965926 0.000000
vn 0.707111 0.707103 0.000000
vn 0.866027 0.499997 0.000000
vn 0.866027 0.499997 0.000000
vn 0.707111 0.707103 0.000000
vn -0.258819 -0.965926 0.000000
vn -0.258819 -0.965926 0.000000
vn -0.707107 -0.707107 0.000000
vn -0.707107 -0.707107 0.000000
vn -0.707107 -0.707107 0.000000
vn -0.707107 -0.707107 0.000000
vn -0.965926 -0.258818 0.000000
vn -0.965926 -0.258818 0.000000
vn 0.965926 -0.258818 0.000000
vn 0.965926 -0.258818 0.000000
vn 0.707107 -0.707107 0.000000
vn 0.707107 -0.707107 0.000000
vn 0.707107 -0.707107 0.000000
vn 0.707107 -0.707107 0.000000
vn 0.258819 -0.965926 0.000000
vn 0.258819 -0.965926 0.000000
vn 0.000000 0.000000 1.000000
vn 0.000000 0.000000 1.000000
vn 0.000000 0.000000 1.000000
vn 0.000000 0.000000 1.000000
vn 0.000000 0.000000 1.000000
vn 0.000000 0.000000 1.000000
vn 0.000000 0.000000 1.000000
vn 0.000000 0.000000 1.000000
vn 0.000000 0.000000 1.000000
vn 0.000000 0.000000 1.000000
vn 0.000000 0.000000 1.000000
vn 0.000000 0.000000 1.000000
vn 0.000000 0.000000 1.000000
vn 0.000000 0.000000 1.000000
vn 0.000000 0.000000 1.000000
vn 0.000000 0.000000 1.000000
vn -0.000000 0.000000 -1.000000
vn -0.000000 0.000000 -1.000000
vn -0.000000 0.000000 -1.000000
vn -0.000000 0.000000 -1.000000
vn -0.000000 0.000000 -1.000000
vn -0.000000 0.000000 -1.000000
vn -0.000000 0.000000 -1.000000
vn -0.000000 0.000000 -1.000000
vn -0.000000 0.000000 -1.000000
vn -0.000000 0.000000 -1.000000
vn -0.000000 0.000000 -1.000000
vn -0.000000 0.000000 -1.000000
vn -0.000000 0.000000 -1.000000
vn -0.000000 0.000000 -1.000000
vn -0.000000 0.000000 -1.000000
vn -0.000000 0.000000 -1.000000
vn 0.836162 0.000000 -0.548483
vn 0.836162 0.000000 -0.548483
vn 0.836162 0.000000 -0.548483
vn 0.836162 0.000000 -0.548483
vn 0.613464 0.000000 -0.789723
vn 0.613464 0.000000 -0.789723
vn 0.613464 0.000000 -0.789723
vn 0.613464 0.000000 -0.789723
vn 0.368029 0.000000 -0.929814
vn 0.368029 0.000000 -0.929814
vn 0.368029 0.000000 -0.929814
vn 0.368029 0.000000 -0.929814
vn 0.122056 0.000000 -0.992523
vn 0.122056 0.000000 -0.992523
vn 0.122056 0.000000 -0.992523
vn 0.122056 0.000000 -0.992523
vn -0.122056 0.000000 -0.992523
vn -0.122056 0.000000 -0.992523
vn -0.122056 0.000000 -0.992523
vn -0.122056 0.000000 -0.992523
vn -0.368017 0.000000 -0.929819
vn -0.368017 0.000000 -0.929819
vn -0.368017 0.000000 -0.929819
vn -0.368017 0.000000 -0.929819
vn -0.613482 0.000000 -0.789709
vn -0.613482 0.000000 -0.789709
vn -0.613482 0.000000 -0.789709
vn -0.613482 0.000000 -0.789709
vn -0.836162 0.000000 -0.548483
vn -0.836162 0.000000 -0.548483
vn -0.836162 0.000000 -0.548483
vn -0.836162 0.000000 -0.548483
vn -0.979836 0.000000 -0.199803
vn -0.979836 0.000000 -0.199803
vn -0.979836 0.000000 -0.199803
vn -0.979836 0.000000 -0.199803
vn -0.979832 0.000000 0.199821
vn -0.979832 0.000000 0.199821
vn -0.979832 0.000000 0.199821
vn -0.979832 0.000000 0.199821
vn -0.836188 0.000000 0.548443
vn -0.836188 0.000000 0.548443
vn -0.836188 0.000000 0.548443
vn -0.836188 0.000000 0.548443
vn -0.613432 0.000000 0.789748
vn -0.613432 0.000000 0.789748
vn -0.613432 0.000000 0.789748
vn -0.613432 0.000000 0.789748
vn -0.368017 0.000000 0.929819
vn -0.368017 0.000000 0.929819
vn -0.368017 0.000000 0.929819
vn -0.368017 0.000000 0.929819
vn -0.122091 0.000000 0.992519
vn -0.122091 0.000000 0.992519
vn -0.122091 0.000000 0.992519
vn -0.122091 0.000000 0.992519
vn 0.122091 0.000000 0.992519
vn 0.122091 0.000000 0.992519
vn 0.122091 0.000000 0.992519
vn 0.122091 0.000000 0.992519
vn 0.368029 0.000000 0.929814
vn 0.368029 0.000000 0.929814
vn 0.368029 0.000000 0.929814
vn 0.368029 0.000000 0.929814
vn 0.613414 0.000000 0.789762
vn 0.613414 0.000000 0.789762
vn 0.613414 0.000000 0.789762
vn 0.613414 0.000000 0.789762
vn 0.836188 0.000000 0.548443
vn 0.836188 0.000000 0.548443
vn 0.836188 0.000000 0.548443
vn 0.836188 0.000000 0.548443
vn 0.979841 0.000000 0.199780
vn 0.979841 0.000000 0.199780
vn 0.979841 0.000000 0.199780
vn 0.979841 0.000000 0.199780
vn 0.979844 0.000000 -0.199763
vn 0.979844 0.000000 -0.199763
vn 0.979844 0.000000 -0.199763
vn 0.979844 0.000000 -0.199763
vn 0.000026 -1.000000 -0.000012
vn 0.000030 -1.000000 0.000000
vn 0.000000 -1.000000 0.000002
vn 0.000019 -1.000000 -0.000036
vn 0.000010 -1.000000 -0.000038
vn 0.000000 -1.000000 -0.000029
vn -0.000010 -1.000000 -0.000029
vn -0.000019 -1.000000 -0.000029
vn -0.000026 -1.000000 -0.000012
vn -0.000030 -1.000000 -0.000032
vn -0.000031 -1.000000 -0.000000
vn -0.000030 -1.000000 0.000032
vn -0.000026 -1.000000 0.000012
vn -0.000019 -1.000000 0.000036
vn -0.000010 -1.000000 0.000038
vn -0.000000 -1.000000 0.000029
vn 0.000010 -1.000000 0.000046
vn 0.000019 -1.000000 0.000042
vn 0.000026 -1.000000 0.000012
vn 0.000030 -1.000000 0.000000
vn 0.000031 -1.000000 0.000000
vn 0.000030 1.000000 -0.000026
vn 0.000026 1.000000 -0.000047
vn -0.000000 1.000000 -0.000002
vn 0.000019 1.000000 -0.000042
vn 0.000010 1.000000 -0.000046
vn 0.000000 1.000000 -0.000029
vn -0.000010 1.000000 -0.000037
vn -0.000019 1.000000 -0.000036
vn -0.000026 1.000000 -0.000029
vn -0.000030 1.000000 -0.000013
vn -0.000031 1.000000 0.000000
vn -0.000030 1.000000 0.000026
vn -0.000026 1.000000 0.000047
vn -0.000019 1.000000 0.000029
vn -0.000010 1.000000 0.000029
vn 0.000000 1.000000 0.000029
vn 0.000010 1.000000 0.000038
vn 0.000019 1.000000 0.000036
vn 0.000026 1.000000 0.000029
vn 0.000030 1.000000 0.000013
vn 0.000031 1.000000 0.000000
s 1
g polySurface5620
usemtl lambert21SG
f 8/1/1 4/2/2 11/3/3 14/4/4
s 2
f 19/5/5 24/6/6 31/7/7 28/8/8
s 3
f 27/9/9 32/10/10 13/11/11 12/12/12
s 4
f 23/13/13 20/14/14 3/15/15 5/16/16
f 3/15/15 2/17/17 6/18/18 5/16/16
f 2/17/17 1/19/19 7/20/20 6/21/18
s 1
f 1/19/21 4/2/2 8/1/1 7/20/22
f 11/3/3 10/22/23 15/23/24 14/4/4
s 3
f 10/22/25 9/24/26 16/25/27 15/23/28
f 9/24/26 12/12/12 13/11/11 16/26/27
s 2
f 19/5/5 18/27/29 21/28/30 24/6/6
s off
f 18/27/31 17/29/32 22/30/33 21/28/34
s 4
f 17/31/35 20/14/14 23/13/13 22/32/36
s 3
f 27/9/9 26/33/37 29/34/38 32/10/10
s off
f 26/35/39 25/36/40 30/37/41 29/38/42
s 2
f 25/36/43 28/8/8 31/7/7 30/37/44
s off
f 25/39/45 26/33/46 27/9/47 12/12/48 9/24/49 10/22/50 11/3/51 4/2/52 1/19/53 2/17/54 3/15/55 20/14/56 17/31/57 18/40/58 19/41/59 28/42/60
f 29/38/61 30/37/62 31/7/63 24/6/64 21/28/65 22/30/66 23/43/67 5/44/68 6/21/69 7/20/70 8/1/71 14/4/72 15/23/73 16/25/74 13/45/75 32/46/76
usemtl lambert23SG
f 33/47/77 34/48/78 54/49/79 53/50/80
f 34/48/81 35/51/82 55/52/83 54/53/84
f 35/51/85 36/54/86 56/55/87 55/56/88
f 36/54/89 37/57/90 57/58/91 56/59/92
f 37/57/93 38/60/94 58/61/95 57/62/96
f 38/60/97 39/63/98 59/64/99 58/65/100
f 39/63/101 40/66/102 60/67/103 59/68/104
f 40/66/105 41/69/106 61/70/107 60/71/108
f 41/69/109 42/72/110 62/73/111 61/74/112
f 42/72/113 43/75/114 63/76/115 62/77/116
f 43/75/117 44/78/118 64/79/119 63/80/120
f 44/78/121 45/81/122 65/82/123 64/83/124
f 45/81/125 46/84/126 66/85/127 65/86/128
f 46/84/129 47/87/130 67/88/131 66/89/132
f 47/87/133 48/90/134 68/91/135 67/92/136
f 48/90/137 49/93/138 69/94/139 68/95/140
f 49/93/141 50/96/142 70/97/143 69/98/144
f 50/96/145 51/99/146 71/100/147 70/101/148
f 51/99/149 52/102/150 72/103/151 71/104/152
f 52/102/153 33/105/154 53/106/155 72/103/156
s 5
f 34/107/157 33/108/158 73/109/159
f 35/110/160 34/107/157 73/109/159
f 36/111/161 35/110/160 73/109/159
f 37/112/162 36/111/161 73/109/159
f 38/113/163 37/112/162 73/109/159
f 39/114/164 38/113/163 73/109/159
f 40/115/165 39/114/164 73/109/159
f 41/116/166 40/115/165 73/109/159
f 42/117/167 41/116/166 73/109/159
f 43/118/168 42/117/167 73/109/159
f 44/119/169 43/118/168 73/109/159
f 45/120/170 44/119/169 73/109/159
f 46/121/171 45/120/170 73/109/159
f 47/122/172 46/121/171 73/109/159
f 48/123/173 47/122/172 73/109/159
f 49/124/174 48/123/173 73/109/159
f 50/125/175 49/124/174 73/109/159
f 51/126/176 50/125/175 73/109/159
f 52/127/177 51/126/176 73/109/159
f 33/128/158 52/127/177 73/129/159
s 6
f 53/130/178 54/131/179 74/132/180
f 54/133/179 55/134/181 74/135/180
f 55/136/181 56/137/182 74/138/180
f 56/139/182 57/140/183 74/141/180
f 57/142/183 58/143/184 74/144/180
f 58/145/184 59/146/185 74/147/180
f 59/148/185 60/149/186 74/150/180
f 60/151/186 61/152/187 74/153/180
f 61/154/187 62/155/188 74/156/180
f 62/157/188 63/158/189 74/159/180
f 63/160/189 64/161/190 74/162/180
f 64/163/190 65/164/191 74/165/180
f 65/166/191 66/167/192 74/168/180
f 66/169/192 67/170/193 74/171/180
f 67/172/193 68/173/194 74/174/180
f 68/175/194 69/176/195 74/177/180
f 69/178/195 70/179/196 74/180/180
f 70/181/196 71/182/197 74/183/180
f 71/184/197 72/185/198 74/186/180
f 72/185/198 53/187/178 74/132/180
